# xmcd
#
# Track frame offsets:
#	150
#	16257
#	29908
#	50109
#	70121
#	83151
#	101678
#	114258
#	143029
#	159431
#
# Disc length: 2184 seconds
#
# Revision: 0
# Processed by: cddbd v1.5.1PL0 Copyright (c) Steve Scherf et al.
# Submitted via: dBpowerAMP V4.0
#
DISCID=8108860a
DTITLE=Turma da Mônica - Canções e Hinos do Brasil
DYEAR=1900
DGENRE=
TTITLE0=Hino Nacional
TTITLE1=Hino à Bandeira
TTITLE2=Hino da Independência
TTITLE3=Hino à Proclamação da República
TTITLE4=Hino do Soldado
TTITLE5=Cisne Branco
TTITLE6=Hino do Aviador
TTITLE7=Canção do Expedicionário
TTITLE8=Estados e Capitais
TTITLE9=Brasil de Todas as Raças
EXTD=
EXTT0=
EXTT1=
EXTT2=
EXTT3=
EXTT4=
EXTT5=
EXTT6=
EXTT7=
EXTT8=
EXTT9=
PLAYORDER=
